<svg width="255" height="56" viewBox="0 0 255 56" fill="none" xmlns="http://www.w3.org/2000/svg">
<path d="M60.3672 21.3633H55.7441L54.8652 24H52.0615L56.8252 11.2031H59.2686L64.0586 24H61.2549L60.3672 21.3633ZM56.4561 19.2275H59.6553L58.0469 14.4375L56.4561 19.2275ZM69.4287 18.7705H67.9082V24H65.2715V11.2031H67.9082V16.3271H69.1123L72.2412 11.2031H75.458L71.5117 17.2588L75.8711 24H72.7246L69.4287 18.7705ZM86.5234 13.3389H82.6035V24H79.9668V13.3389H76.0996V11.2031H86.5234V13.3389ZM95.708 11.2031H98.3535V24H95.708V15.501L90.584 24H87.9473V11.2031H90.584V19.7197L95.708 11.2031ZM100.639 24V11.2031H105.121C106.674 11.2031 107.852 11.502 108.654 12.0996C109.457 12.6914 109.858 13.5615 109.858 14.71C109.858 15.3369 109.697 15.8906 109.375 16.3711C109.053 16.8457 108.604 17.1943 108.03 17.417C108.687 17.5811 109.202 17.9121 109.577 18.4102C109.958 18.9082 110.148 19.5176 110.148 20.2383C110.148 21.4688 109.756 22.4004 108.971 23.0332C108.186 23.666 107.066 23.9883 105.613 24H100.639ZM103.275 18.4277V21.8818H105.534C106.155 21.8818 106.639 21.7354 106.984 21.4424C107.336 21.1436 107.512 20.7334 107.512 20.2119C107.512 19.04 106.905 18.4453 105.692 18.4277H103.275ZM103.275 16.5645H105.227C106.557 16.541 107.222 16.0107 107.222 14.9736C107.222 14.3936 107.052 13.9775 106.712 13.7256C106.378 13.4678 105.848 13.3389 105.121 13.3389H103.275V16.5645ZM122.55 24H119.913V18.5156H114.771V24H112.135V11.2031H114.771V16.3887H119.913V11.2031H122.55V24ZM127.542 15.8174H129.599C131.104 15.8174 132.297 16.1836 133.176 16.916C134.061 17.6426 134.503 18.624 134.503 19.8604C134.503 21.1025 134.063 22.1016 133.185 22.8574C132.312 23.6074 131.148 23.9883 129.695 24H124.888V11.2031H127.542V15.8174ZM138.238 24H135.602V11.2031H138.238V24ZM127.542 17.9443V21.8818H129.643C130.316 21.8818 130.853 21.6973 131.251 21.3281C131.655 20.959 131.857 20.4639 131.857 19.8428C131.857 19.2627 131.664 18.8057 131.277 18.4717C130.896 18.1318 130.372 17.9561 129.704 17.9443H127.542ZM148.231 11.2031H150.877V24H148.231V15.501L143.107 24H140.471V11.2031H143.107V19.7197L148.231 11.2031ZM148.741 7.83691C148.741 8.61621 148.46 9.24609 147.897 9.72656C147.341 10.207 146.608 10.4473 145.7 10.4473C144.792 10.4473 144.057 10.21 143.494 9.73535C142.938 9.26074 142.659 8.62793 142.659 7.83691H144.461C144.461 8.20605 144.569 8.49316 144.786 8.69824C145.009 8.89746 145.313 8.99707 145.7 8.99707C146.081 8.99707 146.38 8.89746 146.597 8.69824C146.813 8.49316 146.922 8.20605 146.922 7.83691H148.741ZM61.5361 34.3389H55.7969V45H53.1602V32.2031H61.5361V34.3389ZM65.8164 40.4912V45H63.1797V32.2031H68.1719C69.1328 32.2031 69.9766 32.3789 70.7031 32.7305C71.4355 33.082 71.998 33.583 72.3906 34.2334C72.7832 34.8779 72.9795 35.6133 72.9795 36.4395C72.9795 37.6934 72.5488 38.6836 71.6875 39.4102C70.832 40.1309 69.6455 40.4912 68.1279 40.4912H65.8164ZM65.8164 38.3555H68.1719C68.8691 38.3555 69.3994 38.1914 69.7627 37.8633C70.1318 37.5352 70.3164 37.0664 70.3164 36.457C70.3164 35.8301 70.1318 35.3232 69.7627 34.9365C69.3936 34.5498 68.8838 34.3506 68.2334 34.3389H65.8164V38.3555ZM80.459 42.3633H75.8359L74.957 45H72.1533L76.917 32.2031H79.3604L84.1504 45H81.3467L80.459 42.3633ZM76.5479 40.2275H79.7471L78.1387 35.4375L76.5479 40.2275ZM96.1387 39.7881H94.6182V45H91.9814V39.7881H90.4258L87.6396 45H84.3525L88.3428 38.1357L84.5459 32.2031H87.8242L90.6719 37.3623H91.9814V32.2031H94.6182V37.3623H95.9014L98.6787 32.2031H101.948L98.2217 38.127L102.15 45H98.8545L96.1387 39.7881ZM115.334 48.1465H112.899V45H105.183V48.1377H102.687L102.546 42.8818H103.513C104.034 42.4482 104.436 41.8125 104.717 40.9746C105.004 40.1309 105.197 39.0879 105.297 37.8457L105.666 32.2031H114.051V42.8818H115.545L115.334 48.1465ZM106.536 42.8818H111.414V34.3389H108.171L107.951 37.7051C107.775 39.9609 107.304 41.6865 106.536 42.8818ZM124.299 42.3633H119.676L118.797 45H115.993L120.757 32.2031H123.2L127.99 45H125.187L124.299 42.3633ZM120.388 40.2275H123.587L121.979 35.4375L120.388 40.2275ZM139.601 45H136.964V39.5156H131.822V45H129.186V32.2031H131.822V37.3887H136.964V32.2031H139.601V45ZM149.585 32.2031H152.23V45H149.585V36.501L144.461 45H141.824V32.2031H144.461V40.7197L149.585 32.2031ZM164.931 45H162.294V39.5156H157.152V45H154.516V32.2031H157.152V37.3887H162.294V32.2031H164.931V45Z" fill="#333333"/>
<path d="M182.148 45H179.503V34.3389H174.379V45H171.742V32.2031H182.148V45ZM194.98 38.8916C194.98 40.1514 194.758 41.2559 194.312 42.2051C193.867 43.1543 193.229 43.8867 192.396 44.4023C191.57 44.918 190.621 45.1758 189.549 45.1758C188.488 45.1758 187.542 44.9209 186.71 44.4111C185.878 43.9014 185.233 43.1748 184.776 42.2314C184.319 41.2822 184.088 40.1924 184.082 38.9619V38.3291C184.082 37.0693 184.308 35.9619 184.759 35.0068C185.216 34.0459 185.857 33.3105 186.684 32.8008C187.516 32.2852 188.465 32.0273 189.531 32.0273C190.598 32.0273 191.544 32.2852 192.37 32.8008C193.202 33.3105 193.844 34.0459 194.295 35.0068C194.752 35.9619 194.98 37.0664 194.98 38.3203V38.8916ZM192.309 38.3115C192.309 36.9697 192.068 35.9502 191.588 35.2529C191.107 34.5557 190.422 34.207 189.531 34.207C188.646 34.207 187.964 34.5527 187.483 35.2441C187.003 35.9297 186.76 36.9375 186.754 38.2676V38.8916C186.754 40.1982 186.994 41.2119 187.475 41.9326C187.955 42.6533 188.646 43.0137 189.549 43.0137C190.434 43.0137 191.113 42.668 191.588 41.9766C192.062 41.2793 192.303 40.2656 192.309 38.9355V38.3115ZM198.944 40.7461C199.021 41.5723 199.264 42.167 199.674 42.5303C200.084 42.8877 200.679 43.0664 201.458 43.0664C202.319 43.0664 202.958 42.7822 203.374 42.2139C203.79 41.6396 204.03 40.793 204.095 39.6738H200.052V37.5381H204.086C204.016 36.3955 203.758 35.5488 203.312 34.998C202.873 34.4414 202.243 34.1631 201.423 34.1631C200.626 34.1631 200.028 34.3535 199.63 34.7344C199.231 35.1094 199 35.7158 198.936 36.5537H196.299C196.428 35.1533 196.938 34.0488 197.828 33.2402C198.725 32.4316 199.923 32.0273 201.423 32.0273C202.489 32.0273 203.424 32.2793 204.227 32.7832C205.035 33.2812 205.656 33.999 206.09 34.9365C206.523 35.8682 206.74 36.9551 206.74 38.1973V39.0322C206.74 40.9189 206.269 42.416 205.325 43.5234C204.388 44.625 203.099 45.1758 201.458 45.1758C199.946 45.1758 198.733 44.7773 197.819 43.9805C196.911 43.1777 196.407 42.0996 196.308 40.7461H198.944ZM217.973 34.3389H214.053V45H211.416V34.3389H207.549V32.2031H217.973V34.3389Z" fill="#72DEA3"/>
<path d="M25.0648 18.6108C25.0648 19.0894 24.6772 19.4774 24.1988 19.4774H16.6193C16.141 19.4774 15.7534 19.0894 15.7534 18.6108C15.7534 18.1322 16.141 17.7443 16.6193 17.7443H24.1988C24.6772 17.7443 25.0648 18.1322 25.0648 18.6108ZM22.3978 23.1143C22.8761 23.1143 23.2638 22.7264 23.2638 22.2478C23.2638 21.7691 22.8761 21.3812 22.3978 21.3812H18.4204C17.9421 21.3812 17.5544 21.7691 17.5544 22.2478C17.5544 22.7264 17.9421 23.1143 18.4204 23.1143H22.3978ZM25.0648 26.9859C25.0648 26.5073 24.6772 26.1193 24.1988 26.1193H16.6193C16.141 26.1193 15.7534 26.5073 15.7534 26.9859C15.7534 27.4645 16.141 27.8525 16.6193 27.8525H24.1988C24.6772 27.8525 25.0648 27.4645 25.0648 26.9859ZM18.4204 29.7565C17.9421 29.7565 17.5544 30.1444 17.5544 30.623C17.5544 31.1017 17.9421 31.4896 18.4204 31.4896H22.3978C22.8761 31.4896 23.2638 31.1017 23.2638 30.623C23.2638 30.1444 22.8761 29.7565 22.3978 29.7565H18.4204ZM32.0974 12.0542V17.4165C32.0974 17.8951 32.4851 18.2831 32.9634 18.2831C33.4417 18.2831 33.8294 17.8951 33.8294 17.4165V12.0542C33.8294 9.2673 31.5636 7 28.7785 7H4.36038C1.95605 7 0 8.95736 0 11.3632V19.0738C0 19.5525 0.387669 19.9404 0.865976 19.9404H4.08587C4.56418 19.9404 4.95185 19.5525 4.95185 19.0738C4.95185 18.5952 4.56418 18.2073 4.08587 18.2073H1.73195V11.3632C1.73195 9.91298 2.91103 8.73312 4.36038 8.73312C5.80974 8.73312 6.98882 9.91298 6.98882 11.3632V37.1795C6.98882 39.9664 9.25459 42.2337 12.0396 42.2337H28.1734C28.6517 42.2337 29.0394 41.8458 29.0394 41.3672C29.0394 40.8886 28.6517 40.5006 28.1734 40.5006H12.0396C10.2096 40.5006 8.72077 39.0107 8.72077 37.1795V11.3632C8.72077 10.3763 8.3917 9.46487 7.83747 8.73312H28.7785C30.6085 8.73312 32.0974 10.223 32.0974 12.0542ZM34.5488 21.4453H32.9633C32.485 21.4453 32.0973 21.8333 32.0973 22.3119C32.0973 22.7905 32.485 23.1784 32.9633 23.1784H34.5488C34.9453 23.1784 35.268 23.5014 35.268 23.8984V33.8519C35.268 34.3306 35.6557 34.7185 36.134 34.7185C36.6123 34.7185 37 34.3306 37 33.8519V23.8984C37 22.5458 35.9004 21.4453 34.5488 21.4453ZM32.9634 44.1133C32.4851 44.1133 32.0974 44.5012 32.0974 44.9799V45.1334C32.0974 45.6121 32.4851 46 32.9634 46C33.4417 46 33.8294 45.6121 33.8294 45.1334V44.9799C33.8294 44.5012 33.4417 44.1133 32.9634 44.1133ZM32.9634 24.6101C32.4851 24.6101 32.0974 24.998 32.0974 25.4766V42.052C32.0974 42.5306 32.4851 42.9185 32.9634 42.9185C33.4417 42.9185 33.8294 42.5306 33.8294 42.052V25.4766C33.8294 24.9981 33.4417 24.6101 32.9634 24.6101Z" fill="#72DEA3"/>
</svg>
